<svg width="14" height="12" viewBox="0 0 14 12" fill="none" xmlns="http://www.w3.org/2000/svg">
<path fill-rule="evenodd" clip-rule="evenodd" d="M3.44667 1.33333L4.66667 0H8.66667L9.88667 1.33333H12C12.7333 1.33333 13.3333 1.93333 13.3333 2.66667V10.6667C13.3333 11.4 12.7333 12 12 12H1.33333C0.6 12 0 11.4 0 10.6667V2.66667C0 1.93333 0.6 1.33333 1.33333 1.33333H3.44667ZM3.33333 6.66667C3.33333 8.50667 4.82667 10 6.66667 10C8.50667 10 10 8.50667 10 6.66667C10 4.82667 8.50667 3.33333 6.66667 3.33333C4.82667 3.33333 3.33333 4.82667 3.33333 6.66667ZM6.66667 8.8C7.84487 8.8 8.8 7.84487 8.8 6.66667C8.8 5.48846 7.84487 4.53333 6.66667 4.53333C5.48846 4.53333 4.53333 5.48846 4.53333 6.66667C4.53333 7.84487 5.48846 8.8 6.66667 8.8Z" fill="#969696"/>
</svg>
